<?xml version="1.0" encoding="UTF-8" standalone="no"?>
<!DOCTYPE svg PUBLIC "-//W3C//DTD SVG 1.1//EN" "http://www.w3.org/Graphics/SVG/1.1/DTD/svg11.dtd">
<svg width="100%" height="100%" viewBox="0 0 400 400" version="1.1" xmlns="http://www.w3.org/2000/svg" xmlns:xlink="http://www.w3.org/1999/xlink" xml:space="preserve" xmlns:serif="http://www.serif.com/" style="fill-rule:evenodd;clip-rule:evenodd;stroke-linecap:round;stroke-linejoin:round;stroke-miterlimit:1.5;">
    <g id="Layer1" transform="matrix(1.0083,0,0,1.0083,-2.70743,-2.12375)">
        <g transform="matrix(1.2634,0,0,0.98729,89.6171,-7.95091)">
            <path d="M228.204,60.413C228.204,55.085 226.55,49.975 223.605,46.207C220.661,42.439 216.668,40.323 212.504,40.323L165.404,40.323C161.24,40.323 157.247,42.439 154.303,46.207C151.358,49.975 149.704,55.085 149.704,60.413L149.704,361.774C149.704,367.102 151.358,372.212 154.303,375.98C157.247,379.748 161.24,381.864 165.404,381.864L212.504,381.864C216.668,381.864 220.661,379.748 223.605,375.98C226.55,372.212 228.204,367.102 228.204,361.774L228.204,60.413Z" style="fill:rgb(230,26,26);stroke:rgb(178,36,45);stroke-opacity:0;stroke-width:2.11px;"/>
        </g>
        <g transform="matrix(1.26696,0,0,0.98729,-38.3584,-7.95091)">
            <path d="M228.204,60.413C228.204,49.318 221.194,40.323 212.548,40.323C198.851,40.323 179.057,40.323 165.36,40.323C156.714,40.323 149.704,49.318 149.704,60.413C149.704,120.962 149.704,301.225 149.704,361.774C149.704,372.87 156.714,381.864 165.36,381.864C179.057,381.864 198.851,381.864 212.548,381.864C221.194,381.864 228.204,372.87 228.204,361.774C228.204,301.225 228.204,120.962 228.204,60.413Z" style="fill:rgb(230,26,26);stroke:rgb(178,36,45);stroke-opacity:0;stroke-width:2.11px;"/>
        </g>
    </g>
</svg>
