<?xml version="1.0" encoding="UTF-8" standalone="no"?>
<!DOCTYPE svg PUBLIC "-//W3C//DTD SVG 1.1//EN" "http://www.w3.org/Graphics/SVG/1.1/DTD/svg11.dtd">
<svg width="100%" height="100%" viewBox="0 0 400 400" version="1.1" xmlns="http://www.w3.org/2000/svg" xmlns:xlink="http://www.w3.org/1999/xlink" xml:space="preserve" xmlns:serif="http://www.serif.com/" style="fill-rule:evenodd;clip-rule:evenodd;stroke-linejoin:round;stroke-miterlimit:2;">
    <g transform="matrix(1.04326,0,0,1.02977,-93.4626,-28.0837)">
        <g id="Layer1">
            <path d="M281.293,27.272C387.099,27.272 473,114.298 473,221.49C473,328.682 387.099,415.708 281.293,415.708C175.488,415.708 89.587,328.682 89.587,221.49C89.587,114.298 175.488,27.272 281.293,27.272ZM281.293,124.381C334.196,124.381 377.146,167.894 377.146,221.49C377.146,275.086 334.196,318.599 281.293,318.599C228.39,318.599 185.44,275.086 185.44,221.49C185.44,167.894 228.39,124.381 281.293,124.381Z" style="fill:rgb(0,152,255);"/>
        </g>
    </g>
</svg>
