<?xml version="1.0" encoding="UTF-8" standalone="no"?>
<!DOCTYPE svg PUBLIC "-//W3C//DTD SVG 1.1//EN" "http://www.w3.org/Graphics/SVG/1.1/DTD/svg11.dtd">
<svg width="100%" height="100%" viewBox="0 0 140 200" version="1.1" xmlns="http://www.w3.org/2000/svg" xmlns:xlink="http://www.w3.org/1999/xlink" xml:space="preserve" xmlns:serif="http://www.serif.com/" style="fill-rule:evenodd;clip-rule:evenodd;stroke-linecap:round;stroke-linejoin:round;stroke-miterlimit:1.5;">
    <g transform="matrix(0.866648,0,0,0.966601,5.97843,-1.29416)">
        <path d="M131.945,35.286C131.945,32.187 129.143,29.674 125.687,29.674L22.059,29.674C18.602,29.674 15.8,32.187 15.8,35.286L15.8,174.302C15.8,177.402 18.602,179.914 22.059,179.914L125.687,179.914C129.143,179.914 131.945,177.402 131.945,174.302L131.945,35.286Z" style="fill:rgb(235,235,235);stroke:black;stroke-width:6.54px;"/>
    </g>
    <g transform="matrix(1.30493,0,0,2.34384,-37.2022,-203.079)">
        <path d="M67.197,156.181L67.197,148.688L107.992,148.688L105.011,147.029L114.527,141.731L133.753,152.434L114.527,163.138L105.011,157.84L107.992,156.181L67.197,156.181Z" style="fill:rgb(6,198,0);stroke:black;stroke-width:1.58px;"/>
    </g>
    <g transform="matrix(0.944939,0,0,0.204666,0.967613,85.6513)">
        <rect x="37.036" y="49.976" width="53.483" height="2.918" style="fill:rgb(8,255,0);stroke:black;stroke-width:4.39px;"/>
    </g>
    <g transform="matrix(0.785022,0,0,0.306826,6.89035,100.084)">
        <rect x="37.036" y="49.976" width="53.483" height="2.918" style="fill:rgb(8,255,0);stroke:black;stroke-width:5.03px;"/>
    </g>
    <g transform="matrix(0.952894,0,0,-0.0816921,0.673002,82.0527)">
        <rect x="37.036" y="49.976" width="53.483" height="2.918" style="fill:rgb(8,255,0);stroke:black;stroke-width:4.44px;"/>
    </g>
    <g transform="matrix(0.829244,0,0,0.475735,5.25254,36.285)">
        <rect x="37.036" y="49.976" width="53.483" height="2.918" style="fill:rgb(8,255,0);stroke:black;stroke-width:4.44px;"/>
    </g>
    <g transform="matrix(1.01586,0,0,0.994145,-3.35112,-4.57755)">
        <ellipse cx="107.095" cy="179.197" rx="8.778" ry="8.781" style="fill:rgb(6,198,0);stroke:black;stroke-width:2.98px;"/>
    </g>
    <g transform="matrix(0.688727,0.750031,-0.74657,0.685548,164.579,-69.3982)">
        <ellipse cx="107.095" cy="179.197" rx="8.778" ry="8.781" style="fill:rgb(6,198,0);stroke:black;stroke-width:2.95px;"/>
    </g>
    <g transform="matrix(0.688727,0.750031,-0.74657,0.685548,111.033,-48.9854)">
        <ellipse cx="107.095" cy="179.197" rx="8.778" ry="8.781" style="fill:rgb(6,198,0);stroke:black;stroke-width:2.95px;"/>
    </g>
    <g transform="matrix(0.634973,-0.638076,1.06998,1.06478,-129.591,79.6269)">
        <rect x="110.529" y="149.418" width="29.471" height="9.681" style="fill:rgb(6,198,0);"/>
    </g>
    <g transform="matrix(-0.59443,-0.591987,1.05531,-1.05967,25.173,380.383)">
        <rect x="110.529" y="149.418" width="29.471" height="9.681" style="fill:rgb(6,198,0);"/>
    </g>
    <g transform="matrix(-0.399995,0.00149386,-0.00564406,-1.51125,107.613,387.082)">
        <rect x="110.529" y="149.418" width="29.471" height="9.681" style="fill:rgb(6,198,0);"/>
    </g>
</svg>
