<?xml version="1.0" encoding="UTF-8" standalone="no"?>
<!DOCTYPE svg PUBLIC "-//W3C//DTD SVG 1.1//EN" "http://www.w3.org/Graphics/SVG/1.1/DTD/svg11.dtd">
<svg width="100%" height="100%" viewBox="0 0 600 400" version="1.1" xmlns="http://www.w3.org/2000/svg" xmlns:xlink="http://www.w3.org/1999/xlink" xml:space="preserve" xmlns:serif="http://www.serif.com/" style="fill-rule:evenodd;clip-rule:evenodd;stroke-linejoin:round;stroke-miterlimit:2;">
    <g transform="matrix(1.26615,0,0,1.25519,-30.869,-77.4085)">
        <ellipse cx="170.494" cy="306.797" rx="49.567" ry="51.026"/>
    </g>
    <g transform="matrix(1.45773,0,0,1.47632,-143.523,-95.4218)">
        <ellipse cx="441.97" cy="143.718" rx="43.053" ry="42.511"/>
    </g>
    <g transform="matrix(1.28206,0,0,1.23644,-80.8353,-43.9481)">
        <ellipse cx="243.215" cy="147.52" rx="35.245" ry="36.546"/>
    </g>
    <g transform="matrix(1.25519,0,0,1.25519,-70.6664,-40.0159)">
        <ellipse cx="344.441" cy="272.991" rx="2.173" ry="0.477"/>
    </g>
    <g transform="matrix(1.35448,0,0,1.27148,-4.71591,8.54692)">
        <ellipse cx="81.229" cy="98.574" rx="27.801" ry="29.616"/>
    </g>
    <g transform="matrix(1.35448,0,0,1.27148,282.311,-81.0304)">
        <ellipse cx="81.229" cy="98.574" rx="27.801" ry="29.616"/>
    </g>
    <g transform="matrix(1.35448,0,0,1.27148,237.586,168.445)">
        <ellipse cx="81.229" cy="98.574" rx="27.801" ry="29.616"/>
    </g>
    <g transform="matrix(0.902989,0,0,0.847652,280.576,121.443)">
        <ellipse cx="81.229" cy="98.574" rx="27.801" ry="29.616"/>
    </g>
    <g transform="matrix(0.601992,0,0,0.565101,120.15,145.835)">
        <ellipse cx="81.229" cy="98.574" rx="27.801" ry="29.616"/>
    </g>
    <g transform="matrix(0.401328,0,0,0.376734,334.719,109.728)">
        <ellipse cx="81.229" cy="98.574" rx="27.801" ry="29.616"/>
    </g>
    <g transform="matrix(0.401328,0,0,0.376734,441.424,179.084)">
        <ellipse cx="81.229" cy="98.574" rx="27.801" ry="29.616"/>
    </g>
    <g transform="matrix(0.401328,0,0,0.376734,392.3,262.233)">
        <ellipse cx="81.229" cy="98.574" rx="27.801" ry="29.616"/>
    </g>
    <g transform="matrix(0.401328,0,0,0.376734,407.939,244.064)">
        <ellipse cx="81.229" cy="98.574" rx="27.801" ry="29.616"/>
    </g>
    <g transform="matrix(0.401328,0,0,0.376734,334.719,109.728)">
        <ellipse cx="81.229" cy="98.574" rx="27.801" ry="29.616"/>
    </g>
    <g transform="matrix(0.401328,0,0,0.376734,481.725,155.841)">
        <ellipse cx="81.229" cy="98.574" rx="27.801" ry="29.616"/>
    </g>
    <g transform="matrix(0.401328,0,0,0.376734,408.998,212.907)">
        <ellipse cx="81.229" cy="98.574" rx="27.801" ry="29.616"/>
    </g>
    <g transform="matrix(0.401328,0,0,0.376734,249.072,303.077)">
        <ellipse cx="81.229" cy="98.574" rx="27.801" ry="29.616"/>
    </g>
    <g transform="matrix(0.401328,0,0,0.376734,360.451,117.769)">
        <ellipse cx="81.229" cy="98.574" rx="27.801" ry="29.616"/>
    </g>
    <g transform="matrix(0.401328,0,0,0.376734,467.174,179.03)">
        <ellipse cx="81.229" cy="98.574" rx="27.801" ry="29.616"/>
    </g>
    <g transform="matrix(0.401328,0,0,0.376734,417.54,272.134)">
        <ellipse cx="81.229" cy="98.574" rx="27.801" ry="29.616"/>
    </g>
    <g transform="matrix(0.401328,0,0,0.376734,386.553,287.681)">
        <ellipse cx="81.229" cy="98.574" rx="27.801" ry="29.616"/>
    </g>
    <g transform="matrix(0.401328,0,0,0.376734,333.614,83.1811)">
        <ellipse cx="81.229" cy="98.574" rx="27.801" ry="29.616"/>
    </g>
    <g transform="matrix(0.401328,0,0,0.376734,456.334,155.322)">
        <ellipse cx="81.229" cy="98.574" rx="27.801" ry="29.616"/>
    </g>
    <g transform="matrix(0.013148,0.401113,-0.376532,0.0123422,427.505,160.58)">
        <ellipse cx="81.229" cy="98.574" rx="27.801" ry="29.616"/>
    </g>
    <g transform="matrix(0.013148,0.401113,-0.376532,0.0123422,114.657,54.9725)">
        <ellipse cx="81.229" cy="98.574" rx="27.801" ry="29.616"/>
    </g>
    <g transform="matrix(-0.400467,0.0262818,-0.0246712,-0.375925,333.701,315.905)">
        <ellipse cx="81.229" cy="98.574" rx="27.801" ry="29.616"/>
    </g>
    <g transform="matrix(-0.0393875,-0.399391,0.374915,-0.0369738,180.267,202.545)">
        <ellipse cx="81.229" cy="98.574" rx="27.801" ry="29.616"/>
    </g>
    <g transform="matrix(0.401328,0,0,0.376734,294.874,138.454)">
        <ellipse cx="81.229" cy="98.574" rx="27.801" ry="29.616"/>
    </g>
    <g transform="matrix(0.013148,0.401113,-0.376532,0.0123422,389.588,133.402)">
        <ellipse cx="81.229" cy="98.574" rx="27.801" ry="29.616"/>
    </g>
    <g transform="matrix(0.013148,0.401113,-0.376532,0.0123422,229.935,57.7206)">
        <ellipse cx="81.229" cy="98.574" rx="27.801" ry="29.616"/>
    </g>
    <g transform="matrix(-0.400467,0.0262818,-0.0246712,-0.375925,234.232,366.333)">
        <ellipse cx="81.229" cy="98.574" rx="27.801" ry="29.616"/>
    </g>
    <g transform="matrix(-0.0393875,-0.399391,0.374915,-0.0369738,220.737,230.509)">
        <ellipse cx="81.229" cy="98.574" rx="27.801" ry="29.616"/>
    </g>
    <g transform="matrix(0.401328,0,0,0.376734,364.768,64.7975)">
        <ellipse cx="81.229" cy="98.574" rx="27.801" ry="29.616"/>
    </g>
    <g transform="matrix(0.401328,0,0,0.376734,323.526,307.453)">
        <ellipse cx="81.229" cy="98.574" rx="27.801" ry="29.616"/>
    </g>
    <g transform="matrix(0.013148,0.401113,-0.376532,0.0123422,208.651,197.597)">
        <ellipse cx="81.229" cy="98.574" rx="27.801" ry="29.616"/>
    </g>
    <g transform="matrix(-0.400467,0.0262818,-0.0246712,-0.375925,161.281,217.971)">
        <ellipse cx="81.229" cy="98.574" rx="27.801" ry="29.616"/>
    </g>
    <g transform="matrix(-0.0393875,-0.399391,0.374915,-0.0369738,361.502,164.787)">
        <ellipse cx="81.229" cy="98.574" rx="27.801" ry="29.616"/>
    </g>
    <g transform="matrix(-0.0393875,-0.399391,0.374915,-0.0369738,507.296,220.264)">
        <ellipse cx="81.229" cy="98.574" rx="27.801" ry="29.616"/>
    </g>
    <g transform="matrix(-0.0393875,-0.399391,0.374915,-0.0369738,536.898,291.567)">
        <ellipse cx="81.229" cy="98.574" rx="27.801" ry="29.616"/>
    </g>
    <g transform="matrix(-0.0393875,-0.399391,0.374915,-0.0369738,492.034,262.319)">
        <ellipse cx="81.229" cy="98.574" rx="27.801" ry="29.616"/>
    </g>
    <g transform="matrix(0.401328,0,0,0.376734,95.2197,217.187)">
        <ellipse cx="81.229" cy="98.574" rx="27.801" ry="29.616"/>
    </g>
    <g transform="matrix(0.401328,0,0,0.376734,243.274,145.182)">
        <ellipse cx="81.229" cy="98.574" rx="27.801" ry="29.616"/>
    </g>
    <g transform="matrix(0.013148,0.401113,-0.376532,0.0123422,376.106,87.6387)">
        <ellipse cx="81.229" cy="98.574" rx="27.801" ry="29.616"/>
    </g>
    <g transform="matrix(0.013148,0.401113,-0.376532,0.0123422,483.132,179.606)">
        <ellipse cx="81.229" cy="98.574" rx="27.801" ry="29.616"/>
    </g>
    <g transform="matrix(-0.400467,0.0262818,-0.0246712,-0.375925,295.779,347.108)">
        <ellipse cx="81.229" cy="98.574" rx="27.801" ry="29.616"/>
    </g>
    <g transform="matrix(-0.0393875,-0.399391,0.374915,-0.0369738,218.858,302.419)">
        <ellipse cx="81.229" cy="98.574" rx="27.801" ry="29.616"/>
    </g>
    <g transform="matrix(0.401328,0,0,0.376734,162.28,149.532)">
        <ellipse cx="81.229" cy="98.574" rx="27.801" ry="29.616"/>
    </g>
    <g transform="matrix(0.401328,0,0,0.376734,119.771,138.061)">
        <ellipse cx="81.229" cy="98.574" rx="27.801" ry="29.616"/>
    </g>
    <g transform="matrix(0.401328,0,0,0.376734,230.436,206.217)">
        <ellipse cx="81.229" cy="98.574" rx="27.801" ry="29.616"/>
    </g>
    <g transform="matrix(0.013148,0.401113,-0.376532,0.0123422,326.184,92.2044)">
        <ellipse cx="81.229" cy="98.574" rx="27.801" ry="29.616"/>
    </g>
    <g transform="matrix(0.013148,0.401113,-0.376532,0.0123422,120.599,170.973)">
        <ellipse cx="81.229" cy="98.574" rx="27.801" ry="29.616"/>
    </g>
    <g transform="matrix(-0.400467,0.0262818,-0.0246712,-0.375925,272.673,282.607)">
        <ellipse cx="81.229" cy="98.574" rx="27.801" ry="29.616"/>
    </g>
    <g transform="matrix(-0.0393875,-0.399391,0.374915,-0.0369738,287.152,259.275)">
        <ellipse cx="81.229" cy="98.574" rx="27.801" ry="29.616"/>
    </g>
    <g transform="matrix(0.401328,0,0,0.376734,145.536,131.129)">
        <ellipse cx="81.229" cy="98.574" rx="27.801" ry="29.616"/>
    </g>
    <g transform="matrix(0.401328,0,0,0.376734,113.945,65.4854)">
        <ellipse cx="81.229" cy="98.574" rx="27.801" ry="29.616"/>
    </g>
    <g transform="matrix(0.401328,0,0,0.376734,406.87,127.216)">
        <ellipse cx="81.229" cy="98.574" rx="27.801" ry="29.616"/>
    </g>
    <g transform="matrix(0.013148,0.401113,-0.376532,0.0123422,365.74,308.216)">
        <ellipse cx="81.229" cy="98.574" rx="27.801" ry="29.616"/>
    </g>
    <g transform="matrix(-0.0393875,-0.399391,0.374915,-0.0369738,334.714,128.973)">
        <ellipse cx="81.229" cy="98.574" rx="27.801" ry="29.616"/>
    </g>
    <g transform="matrix(0.401328,0,0,0.376734,212.974,320.457)">
        <ellipse cx="81.229" cy="98.574" rx="27.801" ry="29.616"/>
    </g>
    <g transform="matrix(0.013148,0.401113,-0.376532,0.0123422,191.285,92.0798)">
        <ellipse cx="81.229" cy="98.574" rx="27.801" ry="29.616"/>
    </g>
    <g transform="matrix(-0.0393875,-0.399391,0.374915,-0.0369738,366.817,329.04)">
        <ellipse cx="81.229" cy="98.574" rx="27.801" ry="29.616"/>
    </g>
    <g transform="matrix(0.401328,0,0,0.376734,226.084,251.741)">
        <ellipse cx="81.229" cy="98.574" rx="27.801" ry="29.616"/>
    </g>
    <g transform="matrix(-0.400467,0.0262818,-0.0246712,-0.375925,233.7,248.222)">
        <ellipse cx="81.229" cy="98.574" rx="27.801" ry="29.616"/>
    </g>
    <g transform="matrix(-0.0393875,-0.399391,0.374915,-0.0369738,318.671,279.568)">
        <ellipse cx="81.229" cy="98.574" rx="27.801" ry="29.616"/>
    </g>
    <g transform="matrix(0.401328,0,0,0.376734,384.783,167.585)">
        <ellipse cx="81.229" cy="98.574" rx="27.801" ry="29.616"/>
    </g>
    <g transform="matrix(0.401328,0,0,0.376734,69.9533,43.4906)">
        <ellipse cx="81.229" cy="98.574" rx="27.801" ry="29.616"/>
    </g>
    <g transform="matrix(0.013148,0.401113,-0.376532,0.0123422,293.103,301.694)">
        <ellipse cx="81.229" cy="98.574" rx="27.801" ry="29.616"/>
    </g>
    <g transform="matrix(-0.400467,0.0262818,-0.0246712,-0.375925,112.054,212.948)">
        <ellipse cx="81.229" cy="98.574" rx="27.801" ry="29.616"/>
    </g>
    <g transform="matrix(-0.0393875,-0.399391,0.374915,-0.0369738,275.44,130.548)">
        <ellipse cx="81.229" cy="98.574" rx="27.801" ry="29.616"/>
    </g>
    <g transform="matrix(0.401328,0,0,0.376734,431.753,150.183)">
        <ellipse cx="81.229" cy="98.574" rx="27.801" ry="29.616"/>
    </g>
    <g transform="matrix(0.013148,0.401113,-0.376532,0.0123422,343.89,295.303)">
        <ellipse cx="81.229" cy="98.574" rx="27.801" ry="29.616"/>
    </g>
    <g transform="matrix(-0.400467,0.0262818,-0.0246712,-0.375925,212.816,148.195)">
        <ellipse cx="81.229" cy="98.574" rx="27.801" ry="29.616"/>
    </g>
    <g transform="matrix(-0.0393875,-0.399391,0.374915,-0.0369738,305.31,130.469)">
        <ellipse cx="81.229" cy="98.574" rx="27.801" ry="29.616"/>
    </g>
    <g transform="matrix(0.273048,0,0,0.255873,256.94,178.89)">
        <ellipse cx="81.229" cy="98.574" rx="27.801" ry="29.616"/>
    </g>
    <g transform="matrix(0.273048,0,0,0.255873,196.613,191.879)">
        <ellipse cx="81.229" cy="98.574" rx="27.801" ry="29.616"/>
    </g>
    <g transform="matrix(0.273048,0,0,0.255873,189.064,173.34)">
        <ellipse cx="81.229" cy="98.574" rx="27.801" ry="29.616"/>
    </g>
    <g transform="matrix(0.273048,0,0,0.255873,271.257,168.588)">
        <ellipse cx="81.229" cy="98.574" rx="27.801" ry="29.616"/>
    </g>
    <g transform="matrix(0.273048,0,0,0.255873,284.074,210.99)">
        <ellipse cx="81.229" cy="98.574" rx="27.801" ry="29.616"/>
    </g>
    <g transform="matrix(0.273048,0,0,0.255873,352.104,206.495)">
        <ellipse cx="81.229" cy="98.574" rx="27.801" ry="29.616"/>
    </g>
    <g transform="matrix(0.273048,0,0,0.255873,435.269,209.093)">
        <ellipse cx="81.229" cy="98.574" rx="27.801" ry="29.616"/>
    </g>
    <g transform="matrix(0.273048,0,0,0.255873,169.747,208.254)">
        <ellipse cx="81.229" cy="98.574" rx="27.801" ry="29.616"/>
    </g>
    <g transform="matrix(0.401328,0,0,0.376734,181.56,14.6556)">
        <ellipse cx="81.229" cy="98.574" rx="27.801" ry="29.616"/>
    </g>
    <g transform="matrix(0.013148,0.401113,-0.376532,0.0123422,349.78,114.121)">
        <ellipse cx="81.229" cy="98.574" rx="27.801" ry="29.616"/>
    </g>
    <g transform="matrix(-0.400467,0.0262818,-0.0246712,-0.375925,241.952,319.327)">
        <ellipse cx="81.229" cy="98.574" rx="27.801" ry="29.616"/>
    </g>
    <g transform="matrix(-0.0393875,-0.399391,0.374915,-0.0369738,261.732,253.715)">
        <ellipse cx="81.229" cy="98.574" rx="27.801" ry="29.616"/>
    </g>
    <g transform="matrix(-0.0393875,-0.399391,0.374915,-0.0369738,252.719,274.952)">
        <ellipse cx="81.229" cy="98.574" rx="27.801" ry="29.616"/>
    </g>
    <g transform="matrix(0.401328,0,0,0.376734,406.082,152.376)">
        <ellipse cx="81.229" cy="98.574" rx="27.801" ry="29.616"/>
    </g>
    <g transform="matrix(0.013148,0.401113,-0.376532,0.0123422,396.146,269.046)">
        <ellipse cx="81.229" cy="98.574" rx="27.801" ry="29.616"/>
    </g>
    <g transform="matrix(-0.400467,0.0262818,-0.0246712,-0.375925,147.31,363.865)">
        <ellipse cx="81.229" cy="98.574" rx="27.801" ry="29.616"/>
    </g>
    <g transform="matrix(-0.0322948,-0.327471,0.310018,-0.0305736,146.883,171.849)">
        <ellipse cx="81.229" cy="98.574" rx="27.801" ry="29.616"/>
    </g>
    <g transform="matrix(0.401328,0,0,0.376734,386.055,106.641)">
        <ellipse cx="81.229" cy="98.574" rx="27.801" ry="29.616"/>
    </g>
    <g transform="matrix(0.401328,0,0,0.376734,515.79,202.882)">
        <ellipse cx="81.229" cy="98.574" rx="27.801" ry="29.616"/>
    </g>
    <g transform="matrix(0.401328,0,0,0.376734,80.9328,241.797)">
        <ellipse cx="81.229" cy="98.574" rx="27.801" ry="29.616"/>
    </g>
    <g transform="matrix(0.401328,0,0,0.376734,134.909,51.0526)">
        <ellipse cx="81.229" cy="98.574" rx="27.801" ry="29.616"/>
    </g>
    <g transform="matrix(0.013148,0.401113,-0.376532,0.0123422,429.246,236.955)">
        <ellipse cx="81.229" cy="98.574" rx="27.801" ry="29.616"/>
    </g>
    <g transform="matrix(-0.400467,0.0262818,-0.0246712,-0.375925,144.028,339.36)">
        <ellipse cx="81.229" cy="98.574" rx="27.801" ry="29.616"/>
    </g>
    <g transform="matrix(-0.0393875,-0.399391,0.374915,-0.0369738,184.008,155.174)">
        <ellipse cx="81.229" cy="98.574" rx="27.801" ry="29.616"/>
    </g>
    <g transform="matrix(0.401328,0,0,0.376734,346.769,298.254)">
        <ellipse cx="81.229" cy="98.574" rx="27.801" ry="29.616"/>
    </g>
    <g transform="matrix(0.013148,0.401113,-0.376532,0.0123422,315.846,228.352)">
        <ellipse cx="81.229" cy="98.574" rx="27.801" ry="29.616"/>
    </g>
    <g transform="matrix(-0.400467,0.0262818,-0.0246712,-0.375925,136.32,220.505)">
        <ellipse cx="81.229" cy="98.574" rx="27.801" ry="29.616"/>
    </g>
    <g transform="matrix(-0.0393875,-0.399391,0.374915,-0.0369738,390.793,125.28)">
        <ellipse cx="81.229" cy="98.574" rx="27.801" ry="29.616"/>
    </g>
    <g transform="matrix(0.401328,0,0,0.376734,363.009,278.982)">
        <ellipse cx="81.229" cy="98.574" rx="27.801" ry="29.616"/>
    </g>
    <g transform="matrix(0.013148,0.401113,-0.376532,0.0123422,299.617,186.151)">
        <ellipse cx="81.229" cy="98.574" rx="27.801" ry="29.616"/>
    </g>
    <g transform="matrix(-0.400467,0.0262818,-0.0246712,-0.375925,173.543,241.578)">
        <ellipse cx="81.229" cy="98.574" rx="27.801" ry="29.616"/>
    </g>
    <g transform="matrix(-0.0393875,-0.399391,0.374915,-0.0369738,306.088,183.922)">
        <ellipse cx="81.229" cy="98.574" rx="27.801" ry="29.616"/>
    </g>
    <g transform="matrix(-0.0393875,-0.399391,0.374915,-0.0369738,392.345,265.208)">
        <ellipse cx="81.229" cy="98.574" rx="27.801" ry="29.616"/>
    </g>
    <g transform="matrix(-0.0393875,-0.399391,0.374915,-0.0369738,385.904,303.761)">
        <ellipse cx="81.229" cy="98.574" rx="27.801" ry="29.616"/>
    </g>
    <g transform="matrix(-0.0267377,-0.271121,0.253995,-0.0250487,255.446,308.243)">
        <ellipse cx="81.229" cy="98.574" rx="27.801" ry="29.616"/>
    </g>
    <g transform="matrix(-0.0267377,-0.271121,0.253995,-0.0250487,256.716,324.932)">
        <ellipse cx="81.229" cy="98.574" rx="27.801" ry="29.616"/>
    </g>
    <g transform="matrix(-0.0267377,-0.271121,0.253995,-0.0250487,259.113,341.688)">
        <ellipse cx="81.229" cy="98.574" rx="27.801" ry="29.616"/>
    </g>
    <g transform="matrix(0.401328,0,0,0.376734,294.42,209.744)">
        <ellipse cx="81.229" cy="98.574" rx="27.801" ry="29.616"/>
    </g>
    <g transform="matrix(0.013148,0.401113,-0.376532,0.0123422,337.916,142.46)">
        <ellipse cx="81.229" cy="98.574" rx="27.801" ry="29.616"/>
    </g>
    <g transform="matrix(-0.400467,0.0262818,-0.0246712,-0.375925,214.376,300.855)">
        <ellipse cx="81.229" cy="98.574" rx="27.801" ry="29.616"/>
    </g>
    <g transform="matrix(-0.0393875,-0.399391,0.374915,-0.0369738,279.788,235.867)">
        <ellipse cx="81.229" cy="98.574" rx="27.801" ry="29.616"/>
    </g>
    <g transform="matrix(-0.0393875,-0.399391,0.374915,-0.0369738,54.9425,316.9)">
        <ellipse cx="81.229" cy="98.574" rx="27.801" ry="29.616"/>
    </g>
    <g transform="matrix(0.401328,0,0,0.376734,282.385,82.9522)">
        <ellipse cx="81.229" cy="98.574" rx="27.801" ry="29.616"/>
    </g>
    <g transform="matrix(0.401328,0,0,0.376734,95.2684,46.7235)">
        <ellipse cx="81.229" cy="98.574" rx="27.801" ry="29.616"/>
    </g>
    <g transform="matrix(0.013148,0.401113,-0.376532,0.0123422,447.074,139.139)">
        <ellipse cx="81.229" cy="98.574" rx="27.801" ry="29.616"/>
    </g>
    <g transform="matrix(0.013148,0.401113,-0.376532,0.0123422,299.687,48.5411)">
        <ellipse cx="81.229" cy="98.574" rx="27.801" ry="29.616"/>
    </g>
    <g transform="matrix(-0.400467,0.0262818,-0.0246712,-0.375925,262.234,409.326)">
        <ellipse cx="81.229" cy="98.574" rx="27.801" ry="29.616"/>
    </g>
    <g transform="matrix(-0.400467,0.0262818,-0.0246712,-0.375925,615.601,194.637)">
        <ellipse cx="81.229" cy="98.574" rx="27.801" ry="29.616"/>
    </g>
    <g transform="matrix(-0.400467,0.0262818,-0.0246712,-0.375925,183.339,68.728)">
        <ellipse cx="81.229" cy="98.574" rx="27.801" ry="29.616"/>
    </g>
    <g transform="matrix(-0.400467,0.0262818,-0.0246712,-0.375925,509.844,389.538)">
        <ellipse cx="81.229" cy="98.574" rx="27.801" ry="29.616"/>
    </g>
    <g transform="matrix(-0.400467,0.0262818,-0.0246712,-0.375925,583.374,354.59)">
        <ellipse cx="81.229" cy="98.574" rx="27.801" ry="29.616"/>
    </g>
    <g transform="matrix(-0.400467,0.0262818,-0.0246712,-0.375925,299.679,61.0969)">
        <ellipse cx="81.229" cy="98.574" rx="27.801" ry="29.616"/>
    </g>
    <g transform="matrix(-0.400467,0.0262818,-0.0246712,-0.375925,353.107,102.556)">
        <ellipse cx="81.229" cy="98.574" rx="27.801" ry="29.616"/>
    </g>
    <g transform="matrix(-0.0393875,-0.399391,0.374915,-0.0369738,197.399,233.417)">
        <ellipse cx="81.229" cy="98.574" rx="27.801" ry="29.616"/>
    </g>
    <g transform="matrix(0.401328,0,0,0.376734,345.77,136.576)">
        <ellipse cx="81.229" cy="98.574" rx="27.801" ry="29.616"/>
    </g>
    <g transform="matrix(0.401328,0,0,0.376734,313.159,31.319)">
        <ellipse cx="81.229" cy="98.574" rx="27.801" ry="29.616"/>
    </g>
    <g transform="matrix(0.401328,0,0,0.376734,306.781,5.45672)">
        <ellipse cx="81.229" cy="98.574" rx="27.801" ry="29.616"/>
    </g>
    <g transform="matrix(0.013148,0.401113,-0.376532,0.0123422,412.107,217.428)">
        <ellipse cx="81.229" cy="98.574" rx="27.801" ry="29.616"/>
    </g>
    <g transform="matrix(-0.400467,0.0262818,-0.0246712,-0.375925,183.741,269.46)">
        <ellipse cx="81.229" cy="98.574" rx="27.801" ry="29.616"/>
    </g>
    <g transform="matrix(-0.0393875,-0.399391,0.374915,-0.0369738,221.122,168.171)">
        <ellipse cx="81.229" cy="98.574" rx="27.801" ry="29.616"/>
    </g>
    <g transform="matrix(0.401328,0,0,0.376734,391.775,78.8214)">
        <ellipse cx="81.229" cy="98.574" rx="27.801" ry="29.616"/>
    </g>
    <g transform="matrix(0.013148,0.401113,-0.376532,0.0123422,441.082,212.409)">
        <ellipse cx="81.229" cy="98.574" rx="27.801" ry="29.616"/>
    </g>
    <g transform="matrix(-0.400467,0.0262818,-0.0246712,-0.375925,334.02,339.534)">
        <ellipse cx="81.229" cy="98.574" rx="27.801" ry="29.616"/>
    </g>
    <g transform="matrix(-0.0393875,-0.399391,0.374915,-0.0369738,119.731,185.962)">
        <ellipse cx="81.229" cy="98.574" rx="27.801" ry="29.616"/>
    </g>
    <g transform="matrix(0.401328,0,0,0.376734,247.284,65.4605)">
        <ellipse cx="81.229" cy="98.574" rx="27.801" ry="29.616"/>
    </g>
    <g transform="matrix(0.401328,0,0,0.376734,271.401,218.476)">
        <ellipse cx="81.229" cy="98.574" rx="27.801" ry="29.616"/>
    </g>
    <g transform="matrix(0.013148,0.401113,-0.376532,0.0123422,323.247,120.456)">
        <ellipse cx="81.229" cy="98.574" rx="27.801" ry="29.616"/>
    </g>
    <g transform="matrix(-0.400467,0.0262818,-0.0246712,-0.375925,249.018,271.735)">
        <ellipse cx="81.229" cy="98.574" rx="27.801" ry="29.616"/>
    </g>
    <g transform="matrix(-0.0393875,-0.399391,0.374915,-0.0369738,359.443,257.016)">
        <ellipse cx="81.229" cy="98.574" rx="27.801" ry="29.616"/>
    </g>
    <g transform="matrix(0.401328,0,0,0.376734,206.264,185.427)">
        <ellipse cx="81.229" cy="98.574" rx="27.801" ry="29.616"/>
    </g>
    <g transform="matrix(1.35448,-0.0141658,0,1.27148,380.206,144.269)">
        <ellipse cx="81.229" cy="98.574" rx="27.801" ry="29.616"/>
    </g>
</svg>
