<?xml version="1.0" encoding="UTF-8" standalone="no"?>
<!DOCTYPE svg PUBLIC "-//W3C//DTD SVG 1.1//EN" "http://www.w3.org/Graphics/SVG/1.1/DTD/svg11.dtd">
<svg width="100%" height="100%" viewBox="0 0 524 284" version="1.1" xmlns="http://www.w3.org/2000/svg" xmlns:xlink="http://www.w3.org/1999/xlink" xml:space="preserve" xmlns:serif="http://www.serif.com/" style="fill-rule:evenodd;clip-rule:evenodd;stroke-linecap:round;stroke-linejoin:round;stroke-miterlimit:1.5;">
    <g id="Artboard1" transform="matrix(0.943367,0,0,0.885649,-5.67775,-98.3701)">
        <rect x="6.019" y="111.071" width="554.954" height="319.672" style="fill:none;"/>
        <g transform="matrix(1.0643,0,0,1.07926,321.298,-97.6869)">
            <ellipse cx="144.565" cy="310.466" rx="29.88" ry="31.386" style="fill:none;stroke:black;stroke-width:1.02px;"/>
        </g>
        <g transform="matrix(1.0643,0,0,1.07926,66.8907,-152.01)">
            <ellipse cx="144.565" cy="310.466" rx="29.88" ry="31.386" style="fill:none;stroke:black;stroke-width:1.02px;"/>
        </g>
        <g transform="matrix(1.0643,0,0,1.07926,-60.3132,48.2106)">
            <ellipse cx="144.565" cy="310.466" rx="29.88" ry="31.386" style="fill:none;stroke:black;stroke-width:1.02px;"/>
        </g>
        <g transform="matrix(1.0643,0,0,1.07926,-60.3132,-20.3549)">
            <ellipse cx="144.565" cy="310.466" rx="29.88" ry="31.386" style="fill:none;stroke:black;stroke-width:1.02px;"/>
        </g>
        <g transform="matrix(1.0643,0,0,1.07926,194.095,-19.573)">
            <ellipse cx="144.565" cy="310.466" rx="29.88" ry="31.386" style="fill:none;stroke:black;stroke-width:1.02px;"/>
        </g>
        <g transform="matrix(1.06156,0,0,1.10186,-34.0697,-39.2544)">
            <path d="M270.292,201.097C270.292,201.097 298.91,210.819 299.578,261.42C300.246,312.021 329.98,319.932 329.98,319.932" style="fill:none;stroke:black;stroke-width:1.01px;"/>
        </g>
        <g transform="matrix(-1.06156,0,0,1.73574,475.488,-170.608)">
            <path d="M270.292,201.097C270.292,201.097 298.91,210.819 299.578,261.42C300.246,312.021 329.98,319.932 329.98,319.932" style="fill:none;stroke:black;stroke-width:0.77px;"/>
        </g>
        <g transform="matrix(1.06003,0,0,1.12912,-33.6568,-44.7364)">
            <path d="M150.331,319.218C150.331,319.218 177.341,322.168 180.625,278.744" style="fill:none;stroke:black;stroke-width:1px;"/>
        </g>
        <g transform="matrix(0.709136,0,0,0.755351,6.50958,72.1307)">
            <text x="22.749px" y="323.601px" style="font-family:'ArialMT', 'Arial', sans-serif;font-size:8.536px;">corruption</text>
        </g>
        <g transform="matrix(-1.06156,0,0,0.68507,730.64,98.5064)">
            <path d="M270.292,201.097C270.292,201.097 298.91,210.819 299.578,261.42C300.246,312.021 329.98,319.932 329.98,319.932" style="fill:none;stroke:black;stroke-width:1.21px;"/>
        </g>
        <g transform="matrix(1.21777,0,0,1.29714,335.462,-258.626)">
            <text x="107.866px" y="392.959px" style="font-family:'ArialMT', 'Arial', sans-serif;font-size:24px;">A</text>
        </g>
        <g transform="matrix(1.31881,0,0,1.40476,-122.604,-136.491)">
            <text x="351.208px" y="330.978px" style="font-family:'ArialMT', 'Arial', sans-serif;font-size:24px;">B</text>
        </g>
        <g transform="matrix(1.30421,0,0,1.3892,-87.5216,-99.2121)">
            <text x="230.298px" y="211.01px" style="font-family:'ArialMT', 'Arial', sans-serif;font-size:24px;">C</text>
        </g>
        <g transform="matrix(1.33516,0,0,1.42218,-50.7689,-154.112)">
            <text x="101.955px" y="386.785px" style="font-family:'ArialMT', 'Arial', sans-serif;font-size:24px;">D</text>
        </g>
        <g transform="matrix(1.33516,0,0,1.42218,-52.0016,-222.406)">
            <text x="101.955px" y="386.785px" style="font-family:'ArialMT', 'Arial', sans-serif;font-size:24px;">E</text>
        </g>
        <g transform="matrix(6.61991e-17,-1.12912,1.06003,7.05133e-17,-304.236,514.401)">
            <text x="106.354px" y="368.4px" style="font-family:'ArialMT', 'Arial', sans-serif;font-size:7.355px;">event</text>
        </g>
        <g transform="matrix(6.61991e-17,-1.12912,1.06003,7.05133e-17,-305.468,446.108)">
            <text x="106.354px" y="368.4px" style="font-family:'ArialMT', 'Arial', sans-serif;font-size:7.355px;">event</text>
        </g>
        <g transform="matrix(6.49083e-17,-1.12912,1.06003,6.91384e-17,-176.475,312.372)">
            <text x="106.354px" y="368.4px" style="font-family:'ArialMT', 'Arial', sans-serif;font-size:7.355px;">event</text>
        </g>
        <g transform="matrix(6.43602e-17,-1.12912,1.06003,6.85546e-17,-48.6461,446.513)">
            <text x="106.354px" y="368.4px" style="font-family:'ArialMT', 'Arial', sans-serif;font-size:7.355px;">event</text>
        </g>
        <g transform="matrix(0.344246,-1.06792,1.00258,0.366681,60.9661,227.191)">
            <text x="106.354px" y="368.4px" style="font-family:'ArialMT', 'Arial', sans-serif;font-size:7.355px;">event</text>
        </g>
        <g transform="matrix(1.06003,0,0,1.32826,-21.6206,-82.1556)">
            <text x="461.98px" y="159.289px" style="font-family:'Arial-BoldMT', 'Arial', sans-serif;font-weight:700;font-size:6.801px;">now</text>
        </g>
        <g transform="matrix(1.00988,0,0,1.07569,1.83349,-41.7522)">
            <text x="81.752px" y="160.687px" style="font-family:'Arial-BoldMT', 'Arial', sans-serif;font-weight:700;font-size:8.397px;">earlier</text>
        </g>
        <g transform="matrix(1.06003,0,0,1.12912,0.311917,-44.1909)">
            <text x="21.64px" y="380.382px" style="font-family:'ArialMT', 'Arial', sans-serif;font-size:6.274px;">violence</text>
        </g>
        <g transform="matrix(1.06003,0,0,1.12912,-35.7382,-53.8722)">
            <text x="518.623px" y="260.194px" style="font-family:'ArialMT', 'Arial', sans-serif;font-size:8.536px;">new laws</text>
        </g>
    </g>
</svg>
