<?xml version="1.0" encoding="UTF-8" standalone="no"?>
<!DOCTYPE svg PUBLIC "-//W3C//DTD SVG 1.1//EN" "http://www.w3.org/Graphics/SVG/1.1/DTD/svg11.dtd">
<svg width="100%" height="100%" viewBox="0 0 800 200" version="1.1" xmlns="http://www.w3.org/2000/svg" xmlns:xlink="http://www.w3.org/1999/xlink" xml:space="preserve" xmlns:serif="http://www.serif.com/" style="fill-rule:evenodd;clip-rule:evenodd;stroke-linecap:round;stroke-linejoin:round;stroke-miterlimit:1.5;">
    <g transform="matrix(1,0,0,0.870566,-1.62388,15.1702)">
        <path d="M65.287,70.064C65.261,69.855 65.329,68.366 65.384,68.476C66.005,69.718 65.705,72.3 65.856,73.66C66.402,78.578 66.798,83.476 66.798,88.427C66.798,102.587 68.055,116.681 68.055,130.844" style="fill:none;stroke:rgb(255,16,0);stroke-width:18.21px;"/>
    </g>
    <g transform="matrix(1,0,0,0.870566,-1.62388,15.1702)">
        <path d="M69.802,65.808C69.579,65.606 68.853,65.177 69.155,65.177C73.204,65.177 77.673,66.029 81.88,66.277C90.235,66.768 98.372,66.591 106.701,66.591" style="fill:none;stroke:rgb(255,16,0);stroke-width:18.21px;"/>
    </g>
    <g transform="matrix(1,0,0,0.870566,-1.62388,15.1702)">
        <path d="M67.7,92.249C69.835,91.939 72.051,92.355 74.182,92.355C77.323,92.355 80.618,91.517 83.765,91.255C90.473,90.696 97.282,92.198 103.873,92.198" style="fill:none;stroke:rgb(255,16,0);stroke-width:18.21px;"/>
    </g>
    <path d="M120.042,129.884C120.037,130.546 119.951,132.528 120.028,131.87C120.599,127.016 120.454,122.099 120.622,117.217C120.957,107.504 120.205,97.985 121.414,88.306C121.786,85.33 120.467,77.267 124.979,76.622C131.78,75.651 133.529,85.049 135.672,89.692C140.208,99.519 148.841,108.589 155.87,116.623C158.386,119.498 159.629,125.532 163.197,127.316C164.777,128.106 164.543,124.903 164.583,124.345C164.813,121.131 164.874,118.244 164.583,115.038C163.659,104.874 163.197,94.563 163.197,84.345C163.197,81.736 162.8,75.633 164.781,73.652C166.234,72.199 167.994,74.834 168.742,75.83C171.567,79.597 173.173,83.65 175.672,87.711C179.052,93.203 184.472,97.187 188.346,102.167C191.681,106.456 194.66,111.172 197.455,115.831C198.359,117.337 201.758,125.08 204.583,123.949C206.528,123.172 206.279,120.05 206.366,118.405C206.593,114.093 204.979,109.873 204.979,105.533C204.979,100.804 204.657,95.975 204.187,91.276C203.473,84.129 203.395,76.81 203.395,69.692" style="fill:none;stroke:rgb(255,16,0);stroke-width:17.07px;"/>
    <g transform="matrix(1,0,0,0.870566,-1.62388,15.1702)">
        <path d="M67.294,130.835C66.993,125.801 68.268,120.819 67.807,115.751C67.287,110.023 68.308,104.151 67.674,98.451C67.119,93.454 67.009,88.182 67.009,83.148C67.009,78.98 66.286,74.634 66.876,70.505C66.98,69.778 66.941,67.512 67.408,67.046C68.795,65.659 71.863,65.192 73.796,64.916C80.213,64 88.15,63.7 94.688,64.517C97.272,64.84 100.071,64.916 102.673,64.916C103.16,64.916 105.068,65.116 105.068,64.65" style="fill:none;stroke:white;stroke-width:2.13px;"/>
    </g>
    <g transform="matrix(1,0,0,0.870566,-1.62388,15.1702)">
        <path d="M68.443,93.387C68.213,93.107 71.212,92.729 71.8,92.729C74.389,92.729 76.721,92.424 79.252,91.664C81.542,90.977 84.977,91.398 87.502,91.398L103.205,91.398" style="fill:none;stroke:white;stroke-width:2.13px;"/>
    </g>
    <path d="M120.185,129.332C119.949,129.31 120.106,125.695 120.106,125.332C120.106,120.804 120.077,116.274 119.84,111.759C119.399,103.396 120.679,95.862 121.703,87.672C122.167,83.959 122.677,79.776 127.558,80.752C130.971,81.435 134.213,87.196 136.075,89.801C142.655,99.014 149.161,107.953 156.435,116.682C158.508,119.169 159.198,121.982 161.891,124.002C162.513,124.468 162.986,125.332 163.887,125.332C164.72,125.332 164.862,123.295 164.952,122.804C165.489,119.851 164.869,116.827 164.686,113.888C164.108,104.637 163.488,95.193 163.488,85.942C163.488,84.148 162.745,78.364 164.553,77.159C166.205,76.058 167.449,77.261 168.545,78.357C171.019,80.831 172.991,83.735 175.465,86.208C179.191,89.934 181.727,94.794 185.046,98.85C187.586,101.954 190.609,105.177 192.764,108.565C194.329,111.023 195.342,113.272 197.422,115.352C199.276,117.206 200.79,118.651 202.878,120.275C203.913,121.08 205.417,122.677 206.737,121.473C207.723,120.574 207.137,118.199 207.137,117.082C207.137,113.495 206.205,110.002 206.205,106.436C206.205,102.069 205.384,97.598 204.874,93.261C204.06,86.336 203.011,79.334 203.011,72.369" style="fill:none;stroke:white;stroke-width:2px;"/>
    <rect x="271.432" y="69.692" width="64.899" height="59.64" style="stroke:black;stroke-width:2px;"/>
    <rect x="347.164" y="69.692" width="65.336" height="59.64" style="stroke:black;stroke-width:2px;"/>
    <g transform="matrix(1,0,0,1,77.5984,0)">
        <rect x="347.164" y="69.692" width="65.336" height="59.64" style="stroke:black;stroke-width:2px;"/>
    </g>
    <path d="M287.11,86.695C287.295,85.646 287.147,90.121 287.147,90.492L287.147,106.999C287.147,100.018 285.319,88.547 290.92,82.945C295.624,78.242 312.077,82.407 310.729,90.492C309.908,95.418 301.507,97.26 297.759,98.509C296.907,98.794 292.329,100.154 291.392,99.217C291.07,98.895 293.507,98.981 293.514,98.981C295.251,98.981 296.959,99.435 298.703,99.217C300.565,98.984 303.704,97.897 305.541,98.509C308.033,99.34 312.178,104.336 310.729,107.235C308.154,112.386 298.701,114.781 293.514,114.781C292.746,114.781 288.649,115.339 288.326,115.017C287.651,114.342 288.326,108.514 288.326,107.471" style="fill:none;stroke:white;stroke-width:4px;"/>
    <path d="M361.391,116.529C365.415,108.228 370.45,100.79 373.693,92.142C374.686,89.494 375.855,86.835 376.759,84.124C377.098,83.105 377.23,82.132 377.23,81.059C377.23,80.636 377.513,79.501 377.702,79.88C381.998,88.472 385.908,97.565 389.493,106.527C389.998,107.791 391.835,115.017 393.03,115.017" style="fill:none;stroke:white;stroke-width:4px;"/>
    <path d="M372.326,102.97C372.902,103.755 375.797,103.089 376.759,103.226C380.044,103.695 383.345,103.697 386.663,103.697" style="fill:none;stroke:white;stroke-width:4px;"/>
    <path d="M468.156,80.97C469.033,80.223 459.639,80.773 457.43,80.97C455.427,81.149 449.703,82.769 447.876,83.552C441.711,86.194 442.077,89.823 441.373,96.859C441.12,99.394 441.373,102.091 441.373,104.641C441.373,119.283 455.442,116.668 465.427,116.668" style="fill:none;stroke:white;stroke-width:4px;"/>
    <rect x="655.052" y="55.673" width="81.937" height="82.078" style="fill:rgb(0,193,6);stroke:rgb(0,193,6);stroke-width:4px;"/>
    <path d="M680.42,81.569C679.334,84.492 679.79,89.439 679.79,92.567C679.79,98.883 679.268,105.108 679.268,111.372" style="fill:none;stroke:black;stroke-width:6.71px;"/>
    <path d="M682.71,78.657C682.351,75.164 691.013,74.768 693.11,75.067C696.02,75.483 699.036,81.466 699.379,84.209C700.072,89.755 697.146,93.407 692.066,95.44C690.704,95.984 689.061,95.643 687.625,95.962C686.592,96.192 683.742,97.233 684.491,96.484C688.293,92.683 701.456,95.913 702.774,101.185C704.636,108.633 693.287,113.2 687.887,113.2C686.635,113.2 680.835,115.07 680.835,111.894" style="fill:none;stroke:black;stroke-width:6.71px;"/>
    <g transform="matrix(1,0,0,0.970265,0,3.31162)">
        <path d="M718.692,75.021C719.136,78.998 718.627,83.39 718.859,86.208C719.732,96.791 719.608,102.006 719.608,111.372" style="fill:none;stroke:black;stroke-width:6.81px;"/>
    </g>
    <g transform="matrix(1,0,0,1,-0.0238505,-0.359257)">
        <path d="M705.973,75.341C710.821,75.397 716.336,74.954 718.885,74.987C724.885,75.064 727.746,74.987 733.303,74.987" style="fill:none;stroke:black;stroke-width:5.49px;"/>
    </g>
    <g transform="matrix(0.636856,0,0,0.85532,314.826,-144.93)">
        <rect x="350" y="237.017" width="124.608" height="73.484" style="fill:rgb(0,42,255);stroke:rgb(0,42,255);stroke-width:7.28px;"/>
    </g>
    <path d="M536.729,62.249C536.457,61.582 539.585,61.498 540.308,61.326C544.321,60.371 548.819,60.267 552.878,60.967C559.358,62.084 566.254,62.832 572.512,64.918C579.773,67.338 586.984,72.559 592.505,77.728C594.181,79.297 595.15,81.613 596.216,83.594C600.022,90.661 602.072,98.564 602.322,106.58C602.439,110.322 602.383,114.095 602.561,117.833C602.587,118.36 602.524,121.664 603.519,121.664" style="fill:none;stroke:white;stroke-opacity:0.49;stroke-width:1px;"/>
    <g transform="matrix(0.636856,0,0,-0.134742,312.68,169.269)">
        <rect x="350" y="237.017" width="124.608" height="73.484" style="fill:rgb(195,13,25);stroke:rgb(195,13,25);stroke-width:11.92px;"/>
    </g>
    <g transform="matrix(1.56566,0,0,1,-300.311,0)">
        <path d="M541.494,128.311C541.379,130.209 541.483,132.175 541.483,134.088C541.483,134.694 541.54,135.301 541.54,135.897C541.54,136.031 541.54,136.894 541.54,136.631" style="fill:none;stroke:white;stroke-width:1.52px;"/>
    </g>
    <g transform="matrix(1.56566,0,0,1,-300.311,0)">
        <path d="M539.345,130.337C538.95,130.589 539.939,130.464 540.014,130.471C540.7,130.54 541.337,130.889 542.048,130.81C542.306,130.782 542.631,130.552 542.896,130.641C543.136,130.721 543.97,130.81 543.97,130.471" style="fill:none;stroke:white;stroke-width:1.52px;"/>
    </g>
    <g transform="matrix(1.56566,0,0,1,-300.311,0)">
        <path d="M546.572,132.805C546.569,132.717 546.561,132.983 546.57,133.071C546.605,133.424 546.717,133.746 546.796,134.088C546.98,134.888 547.155,136.092 548.096,136.405C549.862,136.994 550.074,133.517 550.074,132.562" style="fill:none;stroke:white;stroke-width:1.52px;"/>
    </g>
    <g transform="matrix(1.56566,0,0,1,-300.311,0)">
        <path d="M553.921,132.369C553.646,132.476 553.837,133.152 553.86,133.354C553.928,133.933 554.164,135.212 553.973,135.784C553.939,135.887 553.822,134.58 553.86,134.314C554.036,133.088 554.708,132.54 555.782,132.11C557.226,131.532 558.291,133.103 558.551,134.145C558.611,134.384 558.76,135.292 558.551,135.501" style="fill:none;stroke:white;stroke-width:1.52px;"/>
    </g>
    <g transform="matrix(1.56566,0,0,1,-300.311,0)">
        <path d="M561.897,131.786C561.87,131.612 561.942,132.428 561.942,132.449C561.942,133.207 561.936,134.011 561.999,134.766C562.023,135.055 562.009,135.029 561.886,135.275C561.818,135.41 561.886,135.878 561.886,135.727C561.886,134.798 561.803,133.238 562.394,132.449C563.496,130.98 565.747,131.689 566.576,133.071C566.935,133.669 566.633,134.776 566.633,135.445" style="fill:none;stroke:white;stroke-width:1.52px;"/>
    </g>
    <g transform="matrix(1.56566,0,0,1,-300.311,0)">
        <path d="M570.262,133.3C569.904,133.285 571.288,133.829 571.55,133.862C572.032,133.922 574.182,132.852 573.811,132.11C572.944,130.378 570.579,130.322 569.685,132.11C569.091,133.297 569.397,134.363 570.08,135.388C570.45,135.943 571.046,135.899 571.606,136.123C572.207,136.363 573.108,136.361 573.697,136.066" style="fill:none;stroke:white;stroke-width:1.52px;"/>
    </g>
    <g transform="matrix(1.56566,0,0,1,-300.311,0)">
        <path d="M576.696,127.418C576.69,127.305 576.783,129.137 576.749,129.68C576.647,131.322 576.263,133.364 576.467,134.992C576.544,135.608 577.04,137.188 577.936,136.292" style="fill:none;stroke:white;stroke-width:1.52px;"/>
    </g>
    <g transform="matrix(0.871883,0,0,1.02106,71.587,-1.22562)">
        <path d="M533.472,110.931C533.743,108.978 535.486,106.55 536.376,104.82C538.103,101.463 539.55,97.972 541.266,94.605C544.426,88.407 546.709,81.914 549.742,75.697C552.559,69.923 556.726,64.307 558.761,58.202" style="fill:none;stroke:white;stroke-width:2.11px;"/>
    </g>
    <g transform="matrix(0.964522,0,0,1.0109,20.4601,-0.61547)">
        <path d="M534.321,114.535C534.868,113.094 536.261,111.711 537.137,110.47C538.841,108.056 540.42,105.56 542.027,103.081C549.131,92.121 557.103,81.591 565.064,71.242C567.912,67.539 570.952,64.018 573.866,60.375C574.444,59.653 576.691,57.463 576.691,56.464" style="fill:none;stroke:white;stroke-width:2.02px;"/>
    </g>
    <g transform="matrix(0.829209,0,0,1.0609,95.1718,-3.47148)">
        <path d="M532.738,109.848C532.024,109.718 533.009,108.403 533.334,107.753C534.478,105.465 534.586,105.614 535.833,103.407C537.963,99.638 539.835,95.624 541.592,91.671C544.352,85.461 547.429,79.314 550.394,73.198C552.947,67.932 554.646,62.196 557.24,57.007" style="fill:none;stroke:white;stroke-width:2.1px;"/>
    </g>
    <g transform="matrix(0.906016,0,0,0.986878,54.3017,0.752328)">
        <path d="M532.623,115.905C531.749,116.254 534.512,113.641 534.529,113.621C535.995,111.889 535.843,111.839 537.246,110.035C540.18,106.263 543.041,102.434 545.939,98.626C554.542,87.318 564.884,77.197 572.127,64.939C573.28,62.989 574.788,61.102 576.148,59.289C576.443,58.895 577.778,57.894 577.778,57.333" style="fill:none;stroke:white;stroke-width:2.11px;"/>
    </g>
    <g transform="matrix(0.82823,0,0,0.937326,95.2335,8.5138)">
        <path d="M533.039,113.786C533.441,111.81 535.402,110.35 536.594,108.84C539.684,104.926 542.866,101.037 545.939,97.104C553.472,87.462 561.836,78.444 569.193,68.634C570.582,66.783 571.357,64.776 572.453,62.766C573.977,59.973 575.914,57.467 577.669,54.834" style="fill:none;stroke:white;stroke-width:2.26px;"/>
    </g>
    <g transform="matrix(0.954317,0,0,0.999466,26.464,0.030404)">
        <path d="M534.034,114.796C533.172,115.568 534.424,115.144 535.181,114.273C536.303,112.983 537.235,111.549 538.444,110.34C542.212,106.572 545.103,102.025 548.547,97.974C553.77,91.828 559.177,85.778 563.977,79.283C566.808,75.454 569.307,71.393 572.127,67.547C574.035,64.946 575.987,62.302 577.778,59.615C578.091,59.145 579.299,57.528 579.299,56.898" style="fill:none;stroke:white;stroke-width:2.05px;"/>
    </g>
    <g transform="matrix(0.900279,0,0,1.10355,55.7882,-5.85289)">
        <path d="M534.464,109.442C533.337,110.587 536.084,106.967 536.376,106.449C537.5,104.462 538.796,102.616 539.854,100.582C541.815,96.809 543.057,92.834 544.744,88.954C545.738,86.668 547.072,84.459 547.895,82.109C549.074,78.739 550.875,75.718 552.241,72.437C553.541,69.319 554.796,66.068 556.588,63.201C557.576,61.62 558.039,59.78 558.761,58.094C558.881,57.815 559.598,57.159 559.413,56.79C559.032,56.026 558.111,57.091 557.892,57.442C556.914,59.006 556.193,61.017 555.61,62.766C555.467,63.196 554.523,64.876 554.523,64.722" style="fill:none;stroke:white;stroke-width:1.99px;"/>
    </g>
    <path d="M555.992,118.272C556.102,118.773 556.017,116.403 556.045,116.121C556.198,114.591 556.479,113.106 556.479,111.557C556.479,107.957 556.942,104.065 557.892,100.582C558.157,99.61 558.003,98.514 558.761,97.756C559.119,97.398 559.575,98.84 559.631,98.952C560.349,100.388 560.975,101.72 561.369,103.298C562.309,107.058 563.325,110.621 564.629,114.273C565.008,115.335 565.605,117.794 567.02,118.077C568.498,118.372 569.31,113.883 569.411,113.078C570.079,107.729 570.389,101.962 570.389,96.561" style="fill:none;stroke:white;stroke-width:2px;"/>
    <path d="M574.269,98.266C574.104,98.105 574.179,98.722 574.192,98.952C574.242,99.859 574.347,100.762 574.409,101.668C574.636,104.953 574.518,108.265 574.518,111.557C574.518,112.112 574.626,115.789 574.626,115.251" style="fill:none;stroke:white;stroke-width:2px;"/>
    <path d="M574.974,98.18C574.742,97.145 579.294,96.356 580.06,96.126C580.257,96.067 582.668,95.205 582.668,95.583" style="fill:none;stroke:white;stroke-width:2px;"/>
    <path d="M575.075,107.439C575.018,107.849 576.668,107.324 576.691,107.319C578.007,107.009 582.261,104.411 581.472,106.775" style="fill:none;stroke:white;stroke-width:2px;"/>
    <path d="M574.512,117.592C573.852,117.216 576.577,117.238 576.691,117.207C578.094,116.825 579.668,116.664 581.146,116.664C581.731,116.664 582.425,117.016 582.885,116.555" style="fill:none;stroke:white;stroke-width:2px;"/>
    <path d="M574.713,117.493C574.994,116.633 574.359,115.41 575.17,114.599" style="fill:none;stroke:white;stroke-width:2px;"/>
    <path d="M585.962,95.308C586.131,95.439 586.032,96.709 586.036,96.778C586.127,98.314 586.254,99.798 586.254,101.342C586.254,104.711 586.54,107.997 586.797,111.339C586.906,112.76 586.781,114.553 587.232,115.903C587.251,115.961 587.858,114.586 587.884,114.491C588.207,113.306 588.498,112.116 588.753,110.905C589.47,107.5 589.637,103.939 590.383,100.582C590.629,99.474 590.633,98.32 590.818,97.213C590.897,96.736 591.144,95.8 591.144,95.8C591.144,95.8 591.171,97.108 591.252,97.756C591.41,99.017 591.708,100.304 591.904,101.56C592.433,104.941 592.701,108.334 593.534,111.665C593.627,112.037 594.133,114.4 594.404,114.491C594.803,114.624 594.824,113.066 594.838,112.969C595.086,111.234 595.254,109.488 595.49,107.753C595.884,104.863 596.39,101.964 597.229,99.169C597.636,97.812 598.641,96.588 598.641,95.148" style="fill:none;stroke:white;stroke-width:2px;"/>
    <path d="M610.485,96.348C610.49,94.811 608.677,95.479 607.552,95.8C605.402,96.415 603.022,98.021 602.553,100.364C602.141,102.425 602.862,104.559 603.64,106.449C604.272,107.985 605.671,108.33 606.465,109.601C607.3,110.937 608.204,113.479 608.204,115.034C608.204,115.231 608.348,116.244 608.095,116.447C606.806,117.478 605.126,117.633 603.531,117.533C602.422,117.464 601.264,116.943 600.271,116.447" style="fill:none;stroke:white;stroke-width:2px;"/>
    <path d="M576.11,72.275C576.213,71.246 573.602,71.044 572.888,71.133C570.907,71.381 567.092,72.708 566.042,74.611C565.018,76.466 565.583,78.782 566.042,80.696C566.565,82.875 567.816,86.168 569.628,87.65C572.069,89.648 576.659,89.374 579.082,87.759" style="fill:none;stroke:white;stroke-width:2px;"/>
    <path d="M582.922,89.119C582.735,89.939 584.189,85.586 584.515,84.716C585.71,81.53 587.098,78.412 588.101,75.154C588.384,74.235 588.718,73.364 588.97,72.437C589.118,71.895 589.007,70.41 589.405,70.807C590.045,71.448 590.018,74.328 590.166,75.154C590.722,78.27 591.464,81.324 592.23,84.39C592.43,85.19 592.597,86.931 593.208,87.542" style="fill:none;stroke:white;stroke-width:2px;"/>
    <path d="M587.445,83.221C586.264,82.729 589.55,82.772 590.274,82.652" style="fill:none;stroke:white;stroke-width:2px;"/>
    <path d="M602.609,70.153C602.016,75.962 602.879,82.278 602.879,88.194" style="fill:none;stroke:white;stroke-width:2px;"/>
    <path d="M594.329,69.677C593.7,70.058 598.747,69.612 599.402,69.612C600.969,69.612 602.633,70.34 604.292,70.155C605.847,69.983 607.775,69.577 609.291,69.829C610.086,69.962 611.642,69.572 612.225,70.155" style="fill:none;stroke:white;stroke-width:2px;"/>
</svg>
