<?xml version="1.0" encoding="UTF-8" standalone="no"?>
<!DOCTYPE svg PUBLIC "-//W3C//DTD SVG 1.1//EN" "http://www.w3.org/Graphics/SVG/1.1/DTD/svg11.dtd">
<svg width="100%" height="100%" viewBox="0 0 400 400" version="1.1" xmlns="http://www.w3.org/2000/svg" xmlns:xlink="http://www.w3.org/1999/xlink" xml:space="preserve" xmlns:serif="http://www.serif.com/" style="fill-rule:evenodd;clip-rule:evenodd;stroke-linecap:round;stroke-linejoin:round;stroke-miterlimit:1.5;">
    <g id="Layer1" transform="matrix(1.0083,0,0,1.0083,-2.70743,-2.12375)">
        <g transform="matrix(3.1503,0,0,3.7449,-529.365,-554.858)">
            <ellipse cx="231.852" cy="201.692" rx="62.963" ry="52.382" style="fill:rgb(0,215,255);"/>
        </g>
        <g transform="matrix(-1.04682,-0.597714,2.30953,-3.95609,-28.761,1362.32)">
            <rect x="154.232" y="239.478" width="168.731" height="12.868" style="fill:white;"/>
        </g>
        <g transform="matrix(1.07664,-0.614744,2.30953,3.95609,-714.561,-577.882)">
            <rect x="154.232" y="239.478" width="168.731" height="12.868" style="fill:white;"/>
        </g>
        <g transform="matrix(1.15136e-17,1.15216,-4.62429,5.48747e-16,1338.26,-175.677)">
            <rect x="154.232" y="239.478" width="168.731" height="12.868" style="fill:white;"/>
        </g>
        <g transform="matrix(5.21644,0,0,11.8137,449.624,-2894.44)">
            <ellipse cx="-47.654" cy="261.975" rx="19.012" ry="8.395" style="fill:rgb(254,255,254);"/>
        </g>
        <g transform="matrix(0.991767,0,0,0.991767,5.73038,-1.35714)">
            <path d="M74.194,28.935L29.337,76.853C29.337,76.853 -20.62,135.657 -5.833,189.482C8.955,243.307 -43.392,300.367 0.328,302.935C44.049,305.504 53.154,394.762 77.962,390.612C102.77,386.463 198.244,424.093 198.244,424.093C198.244,424.093 322.071,387.911 325.694,384.755C329.318,381.598 409.455,301.088 409.455,301.088L422.716,198.792L398.22,107.293L339.654,18.602L219.373,-6.993L119.178,8.501L74.194,28.935Z" style="fill:rgb(254,255,254);stroke:rgb(254,255,254);stroke-width:1px;"/>
        </g>
    </g>
</svg>
